<?xml version="1.0" encoding="UTF-8" standalone="no"?>
<!-- Created with Inkscape (http://www.inkscape.org/) -->

<svg
   width="120.59192mm"
   height="17.897083mm"
   viewBox="0 0 120.59192 17.897083"
   version="1.1"
   id="svg1"
   xml:space="preserve"
   sodipodi:docname="drawing-2.svg"
   inkscape:version="1.4 (86a8ad7, 2024-10-11)"
   xmlns:inkscape="http://www.inkscape.org/namespaces/inkscape"
   xmlns:sodipodi="http://sodipodi.sourceforge.net/DTD/sodipodi-0.dtd"
   xmlns="http://www.w3.org/2000/svg"
   xmlns:svg="http://www.w3.org/2000/svg"><sodipodi:namedview
     id="namedview1"
     pagecolor="#ffffff"
     bordercolor="#000000"
     borderopacity="0"
     inkscape:showpageshadow="2"
     inkscape:pageopacity="0.0"
     inkscape:pagecheckerboard="0"
     inkscape:deskcolor="#d1d1d1"
     inkscape:document-units="mm"
     inkscape:clip-to-page="false"
     inkscape:zoom="1.62"
     inkscape:cx="200.30864"
     inkscape:cy="25.617284"
     inkscape:window-width="1920"
     inkscape:window-height="1009"
     inkscape:window-x="-8"
     inkscape:window-y="-8"
     inkscape:window-maximized="1"
     inkscape:current-layer="layer3" /><defs
     id="defs1" /><g
     inkscape:groupmode="layer"
     id="layer3"
     inkscape:label="Layer 2"
     style="display:inline"
     transform="translate(-28.529514,-93.51127)"><path
       style="fill:#000000;stroke:#000000;stroke-width:0.0899999"
       d="m 120.74224,99.935497 -0.0819,11.427053 9.01057,-0.12287 -0.0819,-2.90796 -6.10262,0.12287 -0.041,-1.55637 4.50529,-0.0819 -0.0819,-2.49838 -4.3005,-0.041 v -1.55637 l 6.18453,0.0409 v -2.948913 z"
       id="path8" /><path
       id="path7"
       style="display:inline;fill:#000000;stroke:#000000;stroke-width:0.0899999"
       d="m 109.60206,99.853337 -0.12299,11.427213 3.03083,-0.0817 -0.0822,-3.64526 2.25309,0.0816 1.71979,3.52227 3.19464,0.0822 -2.41639,-4.34134 c 0,0 2.4167,-0.9834 1.8433,-3.85041 -0.5734,-2.867 -3.15381,-3.03082 -3.15381,-3.03082 z m 5.02089,2.091863 c 0.54835,0 1.04108,0.027 1.21439,0.11369 0.46214,0.23108 0.61631,1.38655 0.42375,1.88722 -0.19256,0.50067 -0.34685,1.0012 -1.50224,1.11673 -1.15539,0.11555 -2.15645,-0.0382 -2.15645,-0.0382 l 0.0382,-3.00395 c 0,0 1.06838,-0.0755 1.98231,-0.0755 z" /><path
       id="path6"
       style="fill:#000000;stroke:#000000;stroke-width:0.0899999"
       d="m 100.50959,99.812512 -4.628129,11.345048 3.235461,0.0822 0.737422,-2.37556 h 4.299986 l 0.81959,2.2934 3.1533,-0.0408 -4.50515,-11.304218 z m 1.47433,3.594608 1.16066,2.94815 -2.16576,0.0667 z" /><path
       style="fill:#000000;stroke:#000000;stroke-width:0.0899999"
       d="m 77.450517,99.894547 3.153703,0.041 1.843072,6.757923 2.170732,-6.798883 2.498386,-0.041 2.416474,6.798893 1.761156,-6.839854 3.358489,-0.08192 -3.235616,11.590874 h -3.235616 l -2.170732,-6.51219 -2.047856,6.55315 -3.358489,-0.0819 z"
       id="path5" /><path
       id="path4"
       style="fill:#000000;stroke:#000000;stroke-width:0.0899999"
       d="m 71.265909,100.14014 -3.276286,0.12299 -4.259688,10.52597 3.071647,-0.0408 0.860412,-2.25258 3.972368,-0.0413 0.778247,2.33474 h 2.78536 z m -1.625741,3.20032 1.160136,2.94814 -2.165759,0.0667 z" /><path
       style="fill:#ffffff;stroke:#000000;stroke-width:0.0899999"
       d="m 28.411676,100.49989 0.116046,10.67617 8.587354,0.11605 v -2.90114 h -6.034357 v -1.04441 l 4.641813,-0.11604 -0.116044,-2.66904 h -4.293677 l -0.116046,-1.50859 6.034357,-0.11605 v -2.55299 z"
       id="path1" /><path
       id="path10"
       style="display:inline;opacity:1;fill:#ffffff;fill-opacity:1;stroke:#000000;stroke-width:0.0899999;stroke-opacity:1"
       d="m 56.828799,99.812744 a 5.7544823,5.6316109 0 0 0 -5.754688,5.631696 5.7544823,5.6316109 0 0 0 5.754688,5.63118 5.7544823,5.6316109 0 0 0 5.75417,-5.63118 5.7544823,5.6316109 0 0 0 -5.75417,-5.631696 z m -0.0016,2.625156 a 3.2934453,3.0886593 0 0 1 3.335197,3.03548 l 5.17e-4,0.0527 a 3.2934453,3.0886593 0 0 1 -3.279386,3.0887 3.2934453,3.0886593 0 0 1 -3.307292,-3.06235 3.2934453,3.0886593 0 0 1 3.250964,-3.11454 z" /><g
       style="display:inline;fill:none;stroke:#ffffff;stroke-opacity:0.989637"
       id="g11"
       transform="matrix(0.05585044,-0.01224562,0.0120837,0.05511194,126.77004,89.705624)"><path
         d="m 191.179,273.824 c 49.056,23.687 114.337,8.899 136.669,-38.754 15.805,-33.725 -33.706,-60.592 -58.979,-54.473 -19.074,4.618 -30.426,29.827 -42.73,20.468 -9.462,-35.46 -26.239,-81.555 -90.947,-93.695 -21.101,-3.958 -51.6609,3.27 -32.856,28.445 14.16,18.951 35.024,28.168 56.106,37.95 6.35,2.949 11.338,10.077 18.139,11.955 1.618,0.446 5.136,-0.713 4.944,0.951 -0.42,3.567 -67.626,-30.694 -73.4,-7.173 -4.17,16.986 44.301,26.71 54.568,28.679 0.645,0.123 5.003,0.406 4.938,0.949 -0.34,2.918 -38.635,-3.76 -45.083,10 -8.623,18.393 23.621,19.973 33.549,18.927 8.297,-0.877 16.712,-1.106 24.792,-2.615 0.267,-0.049 13.264,-1.441 -11.659,3.331 -22.07,4.226 -78.7521,14.987 -80.2659,23.718 -1.5138,8.731 6.0821,11.195 10.3109,19.069 4.229,7.873 7.245,9.445 11.664,13.495 4.418,4.049 31.814,-35.911 61.112,-26.136 m 151.367,-68.941 c 24.708,9.753 29.171,-0.57 6.559,13.336 m -37.98,-3.303 c -0.216,-0.596 -0.434,-1.194 -0.652,-1.792"
         stroke="#000000"
         stroke-opacity="0.9"
         stroke-width="16"
         stroke-linecap="round"
         stroke-linejoin="round"
         id="path1-7"
         style="stroke:#ffffff;stroke-opacity:0.989637" /></g><path
       style="display:inline;opacity:0.98;fill:#ffffff;fill-opacity:1;stroke:#000000;stroke-width:0.097;stroke-dasharray:none;stroke-opacity:1"
       d="m 39.072946,102.24479 c -0.660879,1.01529 -1.030022,2.21918 -0.973561,3.43459 0.02557,0.53598 -0.0083,1.09308 0.123016,1.6124 0.301394,0.84641 0.745348,1.66666 1.476887,2.21803 0.858672,0.67568 1.875401,1.14545 2.917352,1.4577 1.281491,0.35056 2.691762,0.23933 3.870234,-0.38894 0.489269,-0.19299 0.851058,-0.60449 1.275988,-0.90718 0.733392,-0.58896 1.141886,-1.46604 1.567354,-2.28217 0.125028,-0.38018 0.559722,-1.02445 0.410662,-1.26546 -1.033209,0.0264 -2.066416,0.053 -3.099626,0.0794 -0.0231,0.77877 -0.558232,1.46095 -1.276063,1.73323 -0.683511,0.3853 -1.516787,0.5859 -2.276106,0.31054 -0.611744,-0.16857 -1.105185,-0.63708 -1.511671,-1.10308 -0.476877,-0.66483 -0.451714,-1.52389 -0.423026,-2.29937 0.229177,-1.09815 1.244619,-1.86781 2.291685,-2.12804 0.770088,-0.008 1.679658,-0.0523 2.226061,0.59914 0.462098,0.25119 0.59436,1.03302 1.08454,1.10322 0.987048,0 1.974096,0 2.961144,0 0.03638,-0.96017 -0.669233,-1.70341 -1.12883,-2.47484 -0.528002,-0.55056 -1.192716,-0.94875 -1.78583,-1.42436 -0.566874,-0.35233 -1.241232,-0.48886 -1.889604,-0.616743 -0.64457,-0.100327 -1.293037,0.0107 -1.936263,0.0601 -1.024663,0.174733 -2.044323,0.512993 -2.88301,1.139883 -0.330138,0.38977 -0.68204,0.76026 -1.021333,1.14192 z"
       id="path11"
       inkscape:label="path11" /></g></svg>
